<svg data-v-2cb57da0="" version="1.0" xmlns="http://www.w3.org/2000/svg" xmlns:xlink="http://www.w3.org/1999/xlink" width="100%" height="100%" viewBox="0 0 260 100" preserveAspectRatio="xMidYMid meet" color-interpolation-filters="sRGB" style="margin: auto;">
  <rect data-v-2cb57da0="" x="0" y="0" width="100%" height="100%" fill="#fff" fill-opacity="1" class="background"></rect>
  <g data-v-2cb57da0="" fill="#333" class="icon-text-wrapper icon-svg-group iconsvg" transform="translate(20,20)">
    <g class="iconsvg-imagesvg" transform="translate(0,0)">
      <g>
        <rect fill="#333" fill-opacity="0" stroke-width="2" x="0" y="0" width="60" height="60" class="image-rect"></rect>
        <svg x="0" y="0" width="60" height="60" filtersec="colorsb1641633106" class="image-svg-svg primary" style="overflow: visible;">
          <svg xmlns="http://www.w3.org/2000/svg" viewBox="-0.1800132691860199 0 100.18001556396484 100">
            <defs>
              <linearGradient id="a02f1ac95-b3c1-439e-b1a6-c58f70172d97" x1="88.52" y1="88.52" x2="25.58" y2="25.58" gradientUnits="userSpaceOnUse">
                <stop offset="0" stop-color="#00b3ee"></stop>
                <stop offset="1" stop-color="#c200af"></stop>
              </linearGradient>
              <linearGradient id="b0d7d2471-f4be-490d-9ec3-90b9352cca9b" x1="54.82" y1="86.45" x2="29.61" y2="42.79" gradientUnits="userSpaceOnUse">
                <stop offset="0" stop-color="#6227d8"></stop>
                <stop offset="1" stop-opacity="0"></stop>
              </linearGradient>
            </defs>
            <path d="M50 0a50 50 0 1 0 50 50A50 50 0 0 0 50 0zm0 69.15A19.15 19.15 0 1 1 69.15 50 19.15 19.15 0 0 1 50 69.15z" fill="url(#a02f1ac95-b3c1-439e-b1a6-c58f70172d97)"></path>
            <path d="M69.14 50.59a50 50 0 0 1-34.56 47l-.62-.2h-.11A50 50 0 0 1 46.49.12c-17.68 3.41-16.7 45-15.64 49.88.06 24.69 37.49 25.22 38.29.59z" fill="url(#b0d7d2471-f4be-490d-9ec3-90b9352cca9b)"></path>
          </svg>
        </svg> <!---->
      </g>
    </g>
    <g transform="translate(67,8.601095199584961)">
      <g data-gra="path-name" fill-rule="" class="tp-name iconsvg-namesvg">
        <g transform="scale(1)">
          <g>
            <path d="M4.32-34.1L15.53-34.1Q17.17-34.1 18.66-33.46 20.16-32.82 21.28-31.73 22.41-30.63 23.05-29.14 23.69-27.65 23.69-25.94L23.69-25.94Q23.69-23.93 22.77-22.2 21.86-20.46 20.22-19.3L20.22-19.3Q18.09-17.78 15.53-17.78L15.53-17.78 4.32-17.78Q4.26-17.78 4.26-17.84L4.26-17.84 4.26-34.04Q4.26-34.1 4.32-34.1L4.32-34.1ZM16.38-9.38L22.17 0 22.17 0 22.1 0.06 4.32 0.06Q4.26 0.06 4.26 0L4.26 0 4.26-9.32Q4.26-9.38 4.32-9.38L4.32-9.38 15.53-9.38Q15.95-9.38 16.32-9.38L16.32-9.38 16.38-9.38ZM68.5-34.04L40.68-34.04 40.68-25.58 59.98-25.58Q60.04-25.58 60.04-25.58L60.04-25.58 60.04-17.05Q60.04-16.99 59.98-16.99L59.98-16.99 40.68-16.99 40.68-8.59 68.5-8.59Q68.5-8.59 68.5-8.53L68.5-8.53 68.5 0Q68.5 0.06 68.5 0.06L68.5 0.06 32.15 0.06 32.15 0.06 32.15 0.06 32.09 0 32.09 0 24.6-12.06Q24.6-12.12 24.66-12.12L24.66-12.12Q28.19-14.43 30.14-18.09 32.09-21.74 32.09-25.94L32.09-25.94Q32.09-29.41 30.78-32.43 29.47-35.44 27.22-37.69 24.97-39.95 21.95-41.26 18.94-42.56 15.53-42.56L15.53-42.56Q15.47-42.56 15.47-42.56L15.47-42.56Q15.47-42.63 15.53-42.63L15.53-42.63 32.15-42.63 32.15-42.63 68.5-42.63Q68.5-42.63 68.5-42.56L68.5-42.56 68.5-34.04Q68.5-34.04 68.5-34.04L68.5-34.04ZM104.98-42.63L113.5-42.63Q113.5-42.63 113.5-42.56L113.5-42.56 113.5-18.15Q113.5-14.43 112.07-11.11 110.64-7.79 108.18-5.3 105.71-2.8 102.39-1.37 99.07 0.06 95.3 0.06L95.3 0.06Q91.52 0.06 88.2-1.37 84.88-2.8 82.42-5.3 79.95-7.79 78.52-11.11 77.09-14.43 77.09-18.15L77.09-18.15 77.09-42.56Q77.09-42.63 77.15-42.63L77.15-42.63 85.68-42.63Q85.68-42.63 85.68-42.56L85.68-42.56 85.68-18.15Q85.68-16.2 86.44-14.43 87.2-12.67 88.51-11.36 89.82-10.05 91.58-9.32 93.35-8.59 95.3-8.59L95.3-8.59Q97.31-8.59 99.04-9.32 100.78-10.05 102.09-11.36 103.4-12.67 104.16-14.43 104.92-16.2 104.92-18.15L104.92-18.15 104.92-42.56Q104.92-42.63 104.98-42.63L104.98-42.63ZM134.94-8.59L145.72-8.59Q147.48-8.59 148.7-9.8 149.92-11.02 149.92-12.79L149.92-12.79Q149.92-14.55 148.7-15.77 147.48-16.99 145.72-16.99L145.72-16.99 134.94-16.99Q132.26-16.99 129.92-17.99 127.57-19 125.84-20.73 124.1-22.47 123.1-24.81 122.09-27.16 122.09-29.84L122.09-29.84Q122.09-32.46 123.1-34.8 124.1-37.14 125.84-38.88 127.57-40.62 129.92-41.62 132.26-42.63 134.94-42.63L134.94-42.63 145.72-42.63Q148.4-42.63 150.71-41.62 153.02-40.62 154.76-38.88 156.5-37.14 157.53-34.8 158.57-32.46 158.57-29.84L158.57-29.84Q158.57-29.78 158.5-29.78L158.5-29.78 149.98-29.78Q149.92-29.78 149.92-29.84L149.92-29.84Q149.92-31.54 148.7-32.79 147.48-34.04 145.72-34.04L145.72-34.04 134.94-34.04Q133.17-34.04 131.92-32.79 130.68-31.54 130.68-29.84L130.68-29.84Q130.68-28.07 131.92-26.82 133.17-25.58 134.94-25.58L134.94-25.58 145.72-25.58Q148.4-25.58 150.71-24.57 153.02-23.57 154.76-21.83 156.5-20.09 157.53-17.75 158.57-15.41 158.57-12.79L158.57-12.79Q158.57-10.11 157.53-7.79 156.5-5.48 154.76-3.71 153.02-1.95 150.71-0.94 148.4 0.06 145.72 0.06L145.72 0.06 134.94 0.06Q132.26 0.06 129.92-0.94 127.57-1.95 125.84-3.71 124.1-5.48 123.1-7.79 122.09-10.11 122.09-12.79L122.09-12.79Q122.09-12.79 122.15-12.79L122.15-12.79 130.68-12.79Q130.68-12.79 130.68-12.79L130.68-12.79Q130.68-11.02 131.92-9.8 133.17-8.59 134.94-8.59L134.94-8.59Z" transform="translate(-4.260000228881836, 42.630001068115234)"></path>
          </g> <!----> <!----> <!----> <!----> <!----> <!----> <!---->
        </g>
      </g> <!---->
    </g>
  </g>
  <defs v-gra="od"></defs>
</svg>
